<svg width="881" height="948" viewBox="0 0 881 948" fill="none" xmlns="http://www.w3.org/2000/svg">
<path d="M247.047 82.5522C270.642 32.1625 321.073 0 376.488 0H681.774C811.075 0 905.839 122.284 874.169 248.269L736.305 796.682C714.047 885.225 634.786 947.259 543.912 947.259H274.524C249.028 947.259 223.656 943.689 199.141 936.649C36.4912 889.947 -45.7819 707.903 26.2459 554.084L247.047 82.5522Z" fill="white"/>
<path d="M247.047 82.5522C270.642 32.1625 321.073 0 376.488 0H681.774C811.075 0 905.839 122.284 874.169 248.269L736.305 796.682C714.047 885.225 634.786 947.259 543.912 947.259H274.524C249.028 947.259 223.656 943.689 199.141 936.649C36.4912 889.947 -45.7819 707.903 26.2459 554.084L247.047 82.5522Z" fill="url(#paint0_linear_5_6)"/>
<defs>
<linearGradient id="paint0_linear_5_6" x1="440.156" y1="0" x2="440.156" y2="947.259" gradientUnits="userSpaceOnUse">
<stop stop-color="#6F53FC"/>
<stop offset="1" stop-color="#B739F8"/>
</linearGradient>
</defs>
</svg>
